<?xml version="1.0" encoding="utf-8"?>
<!-- Generator: Adobe Illustrator 16.0.0, SVG Export Plug-In . SVG Version: 6.00 Build 0)  -->
<!DOCTYPE svg PUBLIC "-//W3C//DTD SVG 1.1//EN" "http://www.w3.org/Graphics/SVG/1.1/DTD/svg11.dtd">
<svg version="1.1" id="Layer_1" xmlns="http://www.w3.org/2000/svg" xmlns:xlink="http://www.w3.org/1999/xlink" x="0px" y="0px"
	 width="240px" height="240px" viewBox="0 0 240 240" enable-background="new 0 0 240 240" xml:space="preserve">
<rect x="1" y="0.431" fill="#D1D3D4" width="236.7" height="239.179"/>
<rect x="20.54" y="76.375" fill="#F1F2F2" width="159.913" height="31.747"/>
<rect x="20.54" y="110.389" fill="#F1F2F2" width="159.913" height="31.746"/>
<text transform="matrix(1 0 0 1 52.2065 123.9277)"><tspan x="0" y="0" font-family="'ArialMT'" font-size="8.708">Jensen-Shannon divergence</tspan><tspan x="0" y="10.449" font-family="'ArialMT'" font-size="8.708">(Conservation Score)</tspan></text>
<text transform="matrix(1 0 0 1 52.2065 89.8877)"><tspan x="0" y="0" font-family="'ArialMT'" font-size="8.708">PolyPhen-2 Score</tspan><tspan x="0" y="10.45" font-family="'ArialMT'" font-size="8.708">(Deleteriousness Prediction)</tspan></text>
<rect x="182.826" y="76.375" fill="#F1F2F2" width="33.25" height="31.747"/>
<rect x="182.826" y="110.389" fill="#F1F2F2" width="33.25" height="31.746"/>
<text transform="matrix(1 0 0 1 192.8506 95.376)" font-family="'ArialMT'" font-size="9.4997">0.8</text>
<text transform="matrix(1 0 0 1 192.8506 129.4189)" font-family="'ArialMT'" font-size="9.4997">0.5</text>
<rect x="21.332" y="188.835" fill="#F1F2F2" width="193.953" height="18.998"/>
<text transform="matrix(1 0 0 1 37.272 202.5088)" font-family="'ArialMT'" font-size="9.4997">See Population Variants at this Locus</text>
<rect x="27.137" y="82.708" fill="#BCBEC0" width="16.887" height="19"/>
<rect x="20.54" y="144.431" fill="#F1F2F2" width="159.913" height="31.746"/>
<text transform="matrix(1 0 0 1 52.2065 157.9678)"><tspan x="0" y="0" font-family="'ArialMT'" font-size="8.708">Solvent-Accesible Surface Area</tspan><tspan x="0" y="10.449" font-family="'ArialMT'" font-size="8.708">(via PDB Model)</tspan></text>
<rect x="182.826" y="144.431" fill="#F1F2F2" width="33.25" height="31.746"/>
<text transform="matrix(1 0 0 1 192.8506 163.4551)" font-family="'ArialMT'" font-size="9.4997">0.2</text>
<polygon fill="#F1F2F2" points="41.066,87.394 35.582,96.893 30.097,87.394 "/>
<rect x="21.332" y="211" fill="#F1F2F2" width="193.953" height="19"/>
<text transform="matrix(1 0 0 1 38.8599 224.6748)" font-family="'ArialMT'" font-size="9.4997">See Disease Mutation at this Locus</text>
<path fill="#F1F2F2" d="M34.212,14.975c0-0.069-0.056-0.126-0.125-0.126H21.669c-0.068,0-0.125,0.057-0.125,0.126v12.418
	c0,0.069,0.057,0.125,0.125,0.125h12.418c0.069,0,0.125-0.055,0.125-0.125V14.975z"/>
<g>
	<line fill="none" stroke="#000000" stroke-width="1.5" stroke-miterlimit="10" x1="22.467" y1="33.756" x2="28.332" y2="39.256"/>
	<line fill="none" stroke="#000000" stroke-width="1.5" stroke-miterlimit="10" x1="33.29" y1="33.756" x2="27.427" y2="39.256"/>
</g>
<path fill="#F1F2F2" d="M95.542,14.616c0-0.071-0.239-0.128-0.533-0.128H42c-0.293,0-0.532,0.058-0.532,0.128v12.804
	c0,0.071,0.239,0.128,0.532,0.128h53.009c0.294,0,0.533-0.058,0.533-0.128V14.616z"/>
<g>
	<line fill="none" stroke="#000000" stroke-width="1.5" stroke-miterlimit="10" x1="63.091" y1="33.395" x2="68.956" y2="38.893"/>
	<line fill="none" stroke="#000000" stroke-width="1.5" stroke-miterlimit="10" x1="73.916" y1="33.395" x2="68.051" y2="38.893"/>
</g>
<path fill="#F1F2F2" d="M155.055,14.616c0-0.071-0.238-0.128-0.533-0.128h-53.008c-0.293,0-0.533,0.058-0.533,0.128v12.804
	c0,0.071,0.239,0.128,0.533,0.128h53.008c0.295,0,0.533-0.058,0.533-0.128V14.616z"/>
<g>
	
		<line fill="none" stroke="#000000" stroke-width="1.5" stroke-miterlimit="10" x1="122.606" y1="33.395" x2="128.472" y2="38.893"/>
	<line fill="none" stroke="#000000" stroke-width="1.5" stroke-miterlimit="10" x1="133.43" y1="33.395" x2="127.564" y2="38.893"/>
</g>
<path fill="#F1F2F2" d="M214.811,14.745c0-0.071-0.238-0.129-0.532-0.129H161.27c-0.296,0-0.532,0.058-0.532,0.129v12.803
	c0,0.07,0.236,0.127,0.532,0.127h53.009c0.294,0,0.532-0.057,0.532-0.127V14.745z"/>
<path fill="#F1F2F2" d="M34.212,44.974c0-0.069-0.056-0.125-0.125-0.125H21.669c-0.068,0-0.125,0.056-0.125,0.125v12.417
	c0,0.07,0.057,0.125,0.125,0.125h12.418c0.069,0,0.125-0.055,0.125-0.125V44.974z"/>
<path fill="#F69799" d="M95.542,44.615c0-0.072-0.239-0.128-0.533-0.128H42c-0.293,0-0.532,0.057-0.532,0.128v12.802
	c0,0.072,0.239,0.129,0.532,0.129h53.009c0.294,0,0.533-0.058,0.533-0.129V44.615z"/>
<path fill="#F1F2F2" d="M155.055,44.615c0-0.072-0.238-0.128-0.533-0.128h-53.008c-0.293,0-0.533,0.057-0.533,0.128v12.802
	c0,0.072,0.239,0.129,0.533,0.129h53.008c0.295,0,0.533-0.058,0.533-0.129V44.615z"/>
<path fill="#F69799" d="M214.811,44.743c0-0.071-0.238-0.128-0.532-0.128H161.27c-0.296,0-0.532,0.057-0.532,0.128v12.803
	c0,0.071,0.236,0.129,0.532,0.129h53.009c0.294,0,0.532-0.058,0.532-0.129V44.743z"/>
<g>
	<line fill="none" stroke="#000000" stroke-width="1.5" stroke-miterlimit="10" x1="182.36" y1="33.636" x2="188.225" y2="39.134"/>
	<line fill="none" stroke="#000000" stroke-width="1.5" stroke-miterlimit="10" x1="193.186" y1="33.636" x2="187.32" y2="39.134"/>
</g>
<text transform="matrix(1 0 0 1 25.0503 24.1328)" font-family="'ArialMT'" font-size="8.7093">A</text>
<text transform="matrix(1 0 0 1 25.5337 54.2529)" font-family="'ArialMT'" font-size="8.7093">S</text>
<text transform="matrix(1 0 0 1 44.7661 23.8896)" font-family="'ArialMT'" font-size="8.7093">Hydrophobic</text>
<text transform="matrix(1 0 0 1 47.1777 54.1309)" font-family="'ArialMT'" font-size="8.7093">Hydrophilic</text>
<text transform="matrix(1 0 0 1 113.9805 23.6475)" font-family="'ArialMT'" font-size="8.7093">Neutral</text>
<text transform="matrix(1 0 0 1 113.9805 53.8896)" font-family="'ArialMT'" font-size="8.7093">Neutral</text>
<text transform="matrix(1 0 0 1 168.1709 23.6475)" font-family="'ArialMT'" font-size="8.7093">Non-Polar</text>
<text transform="matrix(1 0 0 1 177.6094 53.8896)" font-family="'ArialMT'" font-size="8.7093">Polar</text>
</svg>
