<?xml version="1.0" encoding="utf-8"?>
<!-- Generator: Adobe Illustrator 16.0.0, SVG Export Plug-In . SVG Version: 6.00 Build 0)  -->
<!DOCTYPE svg PUBLIC "-//W3C//DTD SVG 1.1//EN" "http://www.w3.org/Graphics/SVG/1.1/DTD/svg11.dtd">
<svg version="1.1" id="Layer_1" xmlns="http://www.w3.org/2000/svg" xmlns:xlink="http://www.w3.org/1999/xlink" x="0px" y="0px"
	 width="2400px" height="2400px" viewBox="0 0 2400 2400" enable-background="new 0 0 2400 2400" xml:space="preserve">
<g>
	<rect x="42.375" y="862.425" fill="#4167B1" width="2310.694" height="47.516"/>
	<rect x="1117.899" y="795.701" fill="#4167B1" width="595.157" height="180.979"/>
	<rect x="1735.187" y="795.701" fill="#4167B1" width="595.172" height="180.979"/>
	<rect x="42.375" y="862.425" fill="#4167B1" fill-opacity="0.8" width="975.453" height="47.516"/>
</g>
<g>
	
		<line fill="#FFFFFF" stroke="#F69799" stroke-width="15" stroke-miterlimit="10" x1="1308.096" y1="707.308" x2="1308.096" y2="1065.074"/>
	<polygon fill="#F69799" points="1360.83,681.521 1308.096,772.865 1255.361,681.521 	"/>
</g>
<g>
	
		<line fill="#FFFFFF" stroke="#F69799" stroke-width="15" stroke-miterlimit="10" x1="1308.096" y1="707.308" x2="1308.096" y2="1065.074"/>
	<polygon fill="#F69799" points="1360.83,681.521 1308.096,772.865 1255.361,681.521 	"/>
</g>
<g>
	
		<line fill="#FFFFFF" stroke="#F69799" stroke-width="15" stroke-miterlimit="10" x1="1308.096" y1="707.308" x2="1308.096" y2="1065.074"/>
	<polygon fill="#F69799" points="1360.83,681.521 1308.096,772.865 1255.361,681.521 	"/>
</g>
<g>
	
		<line fill="#FFFFFF" stroke="#F69799" stroke-width="15" stroke-miterlimit="10" x1="1764.816" y1="707.308" x2="1764.816" y2="1065.074"/>
	<polygon fill="#F69799" points="1817.551,681.521 1764.816,772.865 1712.083,681.521 	"/>
</g>
<g>
	
		<line fill="#FFFFFF" stroke="#F69799" stroke-width="15" stroke-miterlimit="10" x1="2069.298" y1="707.308" x2="2069.298" y2="1065.074"/>
	<polygon fill="#F69799" points="2122.032,681.521 2069.298,772.865 2016.563,681.521 	"/>
</g>
<g>
	<rect x="36.889" y="1457.516" fill="#349946" width="2321.666" height="47.516"/>
	<rect x="339.143" y="1391.148" fill="#349946" width="488.001" height="180.979"/>
	<rect x="36.889" y="1457.516" fill="#349946" fill-opacity="0.8" width="104.937" height="47.516"/>
</g>
<rect x="1034.065" y="1343.768" fill="none" width="548.067" height="312.092"/>
<g>
	
		<line fill="#FFFFFF" stroke="#F69799" stroke-width="15" stroke-miterlimit="10" x1="394.653" y1="1315.652" x2="394.653" y2="1673.418"/>
	<polygon fill="#F69799" points="447.387,1289.857 394.653,1381.203 341.919,1289.857 	"/>
</g>
<g>
	
		<line fill="#FFFFFF" stroke="#F69799" stroke-width="15" stroke-miterlimit="10" x1="470.773" y1="1315.652" x2="470.773" y2="1673.418"/>
	<polygon fill="#F69799" points="523.508,1289.857 470.773,1381.203 418.04,1289.857 	"/>
</g>
<g>
	
		<line fill="#FFFFFF" stroke="#F69799" stroke-width="15" stroke-miterlimit="10" x1="1544.067" y1="1315.652" x2="1544.067" y2="1673.418"/>
	<polygon fill="#F69799" points="1596.803,1289.857 1544.067,1381.203 1491.335,1289.857 	"/>
</g>
</svg>
